<?xml version="1.0" encoding="iso-8859-1"?>
<!-- Generator: Adobe Illustrator 19.0.0, SVG Export Plug-In . SVG Version: 6.00 Build 0)  -->
<svg version="1.1" id="Capa_1" xmlns="http://www.w3.org/2000/svg" xmlns:xlink="http://www.w3.org/1999/xlink" x="0px" y="0px"
	 viewBox="0 0 108.27 108.27" style="enable-background:new 0 0 108.27 108.27;" xml:space="preserve">
<g>
	<path d="M51.954,66.588c-9.284-7.634-15.483-17.054-18.742-22.414l-2.431-4.583c0.85-0.912,7.332-7.853,10.141-11.619
		c3.53-4.729-1.588-9-1.588-9S24.933,4.569,21.651,1.712c-3.282-2.861-7.06-1.272-7.06-1.272C7.693,4.897,0.542,8.772,0.113,27.408
		C0.097,44.856,13.342,62.852,27.665,76.784c14.346,15.734,34.043,31.504,53.086,31.486c18.634-0.425,22.508-7.575,26.965-14.473
		c0,0,1.59-3.775-1.268-7.06c-2.86-3.284-17.265-17.688-17.265-17.688s-4.268-5.119-8.998-1.586
		c-3.525,2.635-9.855,8.496-11.38,9.917C68.808,77.385,58.219,71.74,51.954,66.588z"/>
</g>
<g>
</g>
<g>
</g>
<g>
</g>
<g>
</g>
<g>
</g>
<g>
</g>
<g>
</g>
<g>
</g>
<g>
</g>
<g>
</g>
<g>
</g>
<g>
</g>
<g>
</g>
<g>
</g>
<g>
</g>
</svg>
