<svg id="Capa_1" enable-background="new 0 0 512 512" height="512" viewBox="0 0 512 512" width="512" xmlns="http://www.w3.org/2000/svg"><g><circle cx="115" cy="60" r="60"/><path d="m280 50v191h-50v-36c0-35.902-20.02-67.214-49.482-83.365-16.425 17.45-39.72 28.365-65.518 28.365s-49.093-10.915-65.518-28.365c-29.462 16.151-49.482 47.463-49.482 83.365v80c0 19.299 15.701 35 35 35h5v157c0 19.299 15.701 35 35 35h25v-177c0-8.284 6.716-15 15-15s15 6.716 15 15v177h25c19.299 0 35-15.701 35-35v-157h5c19.299 0 35-15.701 35-35v-14h50v191c0 8.284 6.716 15 15 15h55v-30h-40v-107.333h40v-30h-40v-107.334h40v-30h-40v-107.333h40v-30h-55c-8.284 0-15 6.716-15 15z"/><path d="m497 412h-102c-8.284 0-15 6.716-15 15v70c0 8.284 6.716 15 15 15h102c8.284 0 15-6.716 15-15v-70c0-8.284-6.716-15-15-15z"/><path d="m497 0h-102c-8.284 0-15 6.716-15 15v70c0 8.284 6.716 15 15 15h102c8.284 0 15-6.716 15-15v-70c0-8.284-6.716-15-15-15z"/><path d="m497 137.333h-102c-8.284 0-15 6.716-15 15v70c0 8.284 6.716 15 15 15h102c8.284 0 15-6.716 15-15v-70c0-8.284-6.716-15-15-15z"/><path d="m497 274.667h-102c-8.284 0-15 6.716-15 15v70c0 8.284 6.716 15 15 15h102c8.284 0 15-6.716 15-15v-70c0-8.285-6.716-15-15-15z"/></g></svg>