<?xml version="1.0" encoding="iso-8859-1"?>
<!-- Generator: Adobe Illustrator 19.0.0, SVG Export Plug-In . SVG Version: 6.00 Build 0)  -->
<svg version="1.1" id="Capa_1" xmlns="http://www.w3.org/2000/svg" xmlns:xlink="http://www.w3.org/1999/xlink" x="0px" y="0px"
	 viewBox="0 0 456.704 456.704" style="enable-background:new 0 0 456.704 456.704;" xml:space="preserve">
<g>
	<g>
		<path d="M441.344,8.704H228.352c-8.483,0-15.36,6.877-15.36,15.36V171.52c0,8.483,6.877,15.36,15.36,15.36h91.136v21.504H48.64
			V76.8h25.088c-6.419,23.069,0.255,47.803,17.408,64.512l1.024,1.536c3.173,2.618,7.151,4.064,11.264,4.096
			c3.945-0.107,7.736-1.551,10.752-4.096l73.216-73.728c5.938-5.655,6.167-15.054,0.512-20.992
			c-0.167-0.175-0.337-0.346-0.512-0.512l-1.536-1.536c-26.178-26.104-68.542-26.104-94.72,0H33.28
			c-8.195-0.288-15.072,6.122-15.36,14.318c-0.012,0.347-0.012,0.695,0,1.042v146.944h-2.56c-8.37,0.266-15.094,6.99-15.36,15.36
			V448h30.72V294.4h387.584V448h30.72V223.744c0-8.483-6.877-15.36-15.36-15.36h-83.456V186.88h91.136
			c8.483,0,15.36-6.877,15.36-15.36V24.064C456.704,15.581,449.827,8.704,441.344,8.704z"/>
	</g>
</g>
<g>
</g>
<g>
</g>
<g>
</g>
<g>
</g>
<g>
</g>
<g>
</g>
<g>
</g>
<g>
</g>
<g>
</g>
<g>
</g>
<g>
</g>
<g>
</g>
<g>
</g>
<g>
</g>
<g>
</g>
</svg>
