<svg height="498pt" viewBox="-32 0 498 498.50265" width="498pt" xmlns="http://www.w3.org/2000/svg"><path d="m96.621094 109.011719c24.007812-.027344 43.464844-19.484375 43.492187-43.492188v-14.59375c.074219-15.589843-8.199219-30.023437-21.6875-37.839843-13.488281-7.816407-30.125-7.816407-43.613281 0-13.488281 7.816406-21.761719 22.25-21.6875 37.839843v14.601563c.03125 24.007812 19.488281 43.460937 43.496094 43.484375zm-29.496094-58.085938c-.0625-10.578125 5.546875-20.378906 14.695312-25.6875 9.152344-5.304687 20.445313-5.304687 29.59375 0 9.152344 5.308594 14.761719 15.109375 14.699219 25.6875v14.601563c-.019531 16.28125-13.210937 29.476562-29.492187 29.496094-16.285156-.019532-29.476563-13.214844-29.496094-29.496094zm0 0"/><path d="m392.617188 236.609375c-17.40625.023437-33.003907 10.753906-39.246094 27.007813l-34.464844-6.859376c.105469-2.082031.160156-4.175781.160156-6.28125.007813-35.730468-15.652344-69.667968-42.84375-92.847656l39.75-56.15625c25.089844 13.277344 56.179688 4.804688 71.0625-19.371094 14.882813-24.171874 8.449219-55.746093-14.703125-72.167968-23.152343-16.425782-55.078125-12.0625-72.976562 9.96875-17.898438 22.035156-15.621094 54.175781 5.199219 73.472656l-39.46875 55.757812c-20.144532-13.625-43.910157-20.894531-68.226563-20.863281-3.5 0-7.007813.167969-10.5.464844-.765625-1.007813-1.5625-1.992187-2.417969-2.9375-8.519531-9.414063-20.621094-14.789063-33.320312-14.796875h-19.210938c-1.78125 0-3.492187.679688-4.789062 1.898438l-28.640625 26.875-27.53125-26.789063c-1.308594-1.273437-3.058594-1.984375-4.882813-1.984375h-20.390625c-12.640625 0-24.691406 5.320312-33.203125 14.660156-8.515625 9.339844-12.699218 21.835938-11.527344 34.417969v111.839844c.003907 14.980469 12.144532 27.121093 27.121094 27.125h.316406c5.15625-.0625 10.179688-1.625 14.457032-4.5l5.027344 169.105469c.414062 11.855468 8.058593 22.242187 19.25 26.167968 11.191406 3.921875 23.648437.585938 31.378906-8.410156 7.734375 9.003906 20.199218 12.339844 31.398437 8.402344 11.195313-3.9375 18.832031-14.339844 19.230469-26.203125l2.957031-99.582031c33.820313 13.457031 71.875 11.148437 103.816407-6.296876l39.242187 57.949219c-18.160156 17.53125-19.707031 46.109375-3.546875 65.5 16.160156 19.386719 44.546875 23.011719 65.0625 8.308594 20.515625-14.707031 26.203125-42.753906 13.03125-64.285156-13.171875-21.535157-40.730469-29.25-63.164062-17.683594l-38.746094-57.214844c26.628906-18.796875 44.660156-47.433593 50.101562-79.570312l33.238282 6.609375c-.015626.433594-.035157.867187-.035157 1.300781 0 23.214844 18.820313 42.035156 42.035157 42.035156 23.214843 0 42.035156-18.820312 42.035156-42.035156s-18.820313-42.03125-42.035156-42.03125zm-91.324219-182.636719c0-21.933594 17.78125-39.714844 39.714843-39.714844 21.933594 0 39.714844 17.78125 39.714844 39.714844s-17.78125 39.714844-39.714844 39.714844c-21.921874-.027344-39.6875-17.792969-39.714843-39.714844zm60.984375 396.40625c0 18.898438-15.316406 34.214844-34.214844 34.214844-18.894531 0-34.214844-15.316406-34.214844-34.214844 0-18.894531 15.320313-34.214844 34.214844-34.214844 18.890625.019532 34.195312 15.328126 34.214844 34.214844zm-321.570313-179.027344c0 7.46875-5.824219 13.609376-12.980469 13.691407h-.152343c-7.246094-.007813-13.121094-5.878907-13.125-13.125v-112.179688c0-.238281-.011719-.472656-.035157-.707031-.882812-8.699219 1.960938-17.363281 7.824219-23.847656s14.199219-10.183594 22.941407-10.183594h17.546874l30.292969 29.46875c.03125.027344.066407.050781.101563.078125.207031.199219.429687.386719.660156.558594.019531.011719.035156.027343.054688.039062.25.179688.515624.339844.792968.484375.054688.03125.109375.058594.167969.085938.25.125.511719.238281.777344.332031.023437.007813.050781.023437.074219.03125.285156.09375.578124.171875.871093.230469.070313.011718.140625.023437.210938.035156.261719.046875.523437.074219.785156.089844.042969 0 .085937.007812.125.011718.296875.007813.59375 0 .890625-.027343.070312-.007813.144531-.015625.214844-.023438.289062-.035156.578125-.085937.859375-.15625l.039062-.007812c.308594-.078125.609375-.179688.902344-.300781.027344-.011719.054687-.015626.082031-.027344.027344-.011719.054688-.03125.082032-.042969.570312-.25 1.105468-.574219 1.585937-.964844.066406-.054687.128906-.109375.195313-.164062.0625-.054688.136718-.109375.199218-.171875l31.5-29.554688h16.445313c8.738281 0 17.070312 3.699219 22.933593 10.1875 5.859376 6.484375 8.703126 15.148438 7.820313 23.84375-.023437.234375-.035156.46875-.035156.707032v112.160156c0 7.261718-5.886719 13.148437-13.148438 13.148437-7.265625 0-13.152343-5.886719-13.152343-13.148437v-75.074219c0-3.867187-3.132813-7-7-7-3.867188 0-7 3.132813-7 7v57.789063l-.21875-.007813-.03125.972656h-85.613282l-.132812-4.363281-.351563.011719v-54.402344c0-3.867187-3.136719-7-7-7-3.867187 0-7 3.132813-7 7zm93.925781 191.785157c-.28125 8.085937-6.992187 14.453125-15.082031 14.304687-8.089843-.144531-14.566406-6.75-14.554687-14.835937v-164.871094h-14v164.871094c.003906 8.074219-6.457032 14.667969-14.535156 14.828125-8.074219.15625-14.789063-6.179688-15.101563-14.25l-5.753906-193.601563h84.777343zm62.226563-104.449219c-15.46875.042969-30.761719-3.265625-44.832031-9.695312l1.609375-54.179688c8.363281 5.3125 18.953125 5.648438 27.632812.878906 8.683594-4.765625 14.078125-13.886718 14.078125-23.792968v-111.820313c.554688-5.988281-.101562-12.019531-1.925781-17.746094 1.144531-.039062 2.296875-.058593 3.441406-.058593 59.761719 0 108.207031 48.445312 108.207031 108.207031 0 59.757812-48.445312 108.207031-108.207031 108.207031zm195.757813-52.011719c-15.484376 0-28.035157-12.550781-28.035157-28.03125 0-15.484375 12.550781-28.035156 28.03125-28.035156 15.484375 0 28.035157 12.550781 28.035157 28.03125-.015626 15.476563-12.554688 28.019531-28.03125 28.035156zm0 0"/></svg>